<svg width="24" height="25" fill="none" xmlns="http://www.w3.org/2000/svg"><path d="M12 6.768A6.239 6.239 0 005.768 13 6.237 6.237 0 0012 19.23 6.236 6.236 0 0018.23 13 6.235 6.235 0 0012 6.768zm0 10.086A3.857 3.857 0 018.146 13 3.857 3.857 0 0112 9.146 3.857 3.857 0 0115.854 13 3.857 3.857 0 0112 16.854zM17.094 1H6.906A6.915 6.915 0 000 7.906v10.188A6.915 6.915 0 006.906 25h10.188A6.915 6.915 0 0024 18.094V7.906A6.914 6.914 0 0017.094 1zm4.53 17.094a4.535 4.535 0 01-4.53 4.528H6.906a4.533 4.533 0 01-4.528-4.528V7.906a4.533 4.533 0 014.528-4.528h10.188a4.533 4.533 0 014.528 4.528v10.188h.002zM18.317 4.968c-.898 0-1.631.73-1.631 1.63 0 .898.73 1.631 1.63 1.631.899 0 1.631-.73 1.631-1.63 0-.9-.732-1.631-1.63-1.631z" fill="#1B1A1A"/></svg>